<svg width="28" height="28" viewBox="0 0 28 28" fill="none" xmlns="http://www.w3.org/2000/svg">
<path d="M14 12.8334L14 19.8334M14 19.8334L17.5 16.3334M14 19.8334L10.5 16.3334" stroke="white" stroke-width="1.5" stroke-linecap="round" stroke-linejoin="round"/>
<path d="M5.83301 7C5.83301 5.067 7.40001 3.5 9.33301 3.5H15.3665C15.9853 3.5 16.5788 3.74583 17.0164 4.18342L21.4829 8.64992C21.9205 9.0875 22.1663 9.68099 22.1663 10.2998V21C22.1663 22.933 20.5993 24.5 18.6663 24.5H9.33301C7.40001 24.5 5.83301 22.933 5.83301 21V7Z" stroke="white" stroke-width="1.5"/>
<path d="M15.167 3.5V5.83333C15.167 8.41066 17.2563 10.5 19.8337 10.5H22.167" stroke="white" stroke-width="1.5"/>
</svg>
