<svg width="28" height="28" viewBox="0 0 28 28" fill="none" xmlns="http://www.w3.org/2000/svg">
<path fill-rule="evenodd" clip-rule="evenodd" d="M10.2026 4.68318C10.0216 4.63682 9.83276 4.62499 9.64694 4.64837C9.46111 4.67175 9.28193 4.72988 9.11961 4.81945C8.9573 4.90901 8.81504 5.02826 8.70095 5.17037C8.58686 5.31249 8.50318 5.47468 8.45469 5.64771L4.76018 18.8215C4.66255 19.1708 4.71401 19.5428 4.90326 19.8559C5.0925 20.1689 5.40405 20.3973 5.76944 20.4909L16.7982 23.3168C17.1638 23.4101 17.5532 23.3608 17.8808 23.1797C18.2083 22.9986 18.4473 22.7006 18.5449 22.3512L22.2395 9.17738C22.3371 8.82811 22.2856 8.45609 22.0964 8.14306C21.9071 7.83003 21.5956 7.60162 21.2302 7.50801L10.2015 4.68318H10.2026ZM6.80038 5.22436C6.90704 4.84372 7.09111 4.48688 7.34208 4.17422C7.59304 3.86157 7.906 3.59922 8.26306 3.40215C8.62013 3.20509 9.01431 3.07717 9.42311 3.0257C9.83191 2.97424 10.2473 3.00023 10.6456 3.10219L21.6743 5.92593C22.0725 6.02809 22.4458 6.20421 22.7728 6.44422C23.0998 6.68424 23.3741 6.98346 23.5801 7.3248C23.7861 7.66614 23.9197 8.04291 23.9733 8.4336C24.027 8.82429 23.9995 9.22125 23.8926 9.60182L20.1981 22.7756C20.0915 23.1563 19.9074 23.5131 19.6564 23.8258C19.4055 24.1384 19.0925 24.4008 18.7354 24.5978C18.3784 24.7949 17.9842 24.9228 17.5754 24.9743C17.1666 25.0258 16.7512 24.9998 16.3529 24.8978L5.32646 22.073C4.52228 21.8669 3.83668 21.364 3.42046 20.6748C3.00424 19.9857 2.8915 19.1668 3.10702 18.3982L6.80038 5.22436V5.22436Z" fill="white"/>
<path fill-rule="evenodd" clip-rule="evenodd" d="M9.96569 7.61245C9.99507 7.50758 10.0458 7.40927 10.1148 7.32316C10.1839 7.23704 10.27 7.16479 10.3683 7.11055C10.4665 7.0563 10.575 7.02112 10.6874 7.00701C10.7999 6.9929 10.9142 7.00014 11.0237 7.02831L19.3599 9.16648C19.5811 9.22319 19.7697 9.3617 19.8842 9.55155C19.9988 9.74139 20.0298 9.96702 19.9706 10.1788C19.9114 10.3906 19.7667 10.5712 19.5684 10.6808C19.3701 10.7905 19.1344 10.8202 18.9132 10.7635L10.5758 8.62532C10.4663 8.59719 10.3636 8.54867 10.2737 8.48254C10.1837 8.41641 10.1082 8.33396 10.0516 8.2399C9.99493 8.14584 9.95817 8.04202 9.94344 7.93436C9.9287 7.8267 9.93626 7.71731 9.96569 7.61245V7.61245ZM8.99749 11.0732C9.0566 10.8614 9.20114 10.6808 9.39933 10.5711C9.59752 10.4613 9.83312 10.4314 10.0543 10.488L18.3917 12.6261C18.5013 12.6542 18.604 12.7027 18.6941 12.7688C18.7841 12.8349 18.8597 12.9173 18.9165 13.0113C18.9732 13.1054 19.0101 13.2092 19.0249 13.3169C19.0398 13.4246 19.0323 13.5341 19.003 13.639C18.9737 13.7439 18.923 13.8423 18.854 13.9285C18.7849 14.0147 18.6988 14.087 18.6006 14.1414C18.5024 14.1957 18.3939 14.231 18.2814 14.2452C18.1689 14.2594 18.0546 14.2523 17.945 14.2242L9.60765 12.085C9.4981 12.0568 9.39542 12.0083 9.30547 11.9422C9.21551 11.8761 9.14005 11.7936 9.08339 11.6995C9.02672 11.6055 8.98997 11.5017 8.97524 11.394C8.9605 11.2863 8.96806 11.177 8.99749 11.0721V11.0732ZM8.02929 14.5328C8.08865 14.3213 8.23329 14.1409 8.43145 14.0314C8.62961 13.9219 8.86508 13.8921 9.08613 13.9487L14.6467 15.3738C14.7563 15.4019 14.859 15.4503 14.9491 15.5164C15.0391 15.5825 15.1147 15.6649 15.1714 15.759C15.2282 15.8531 15.2651 15.9569 15.2799 16.0646C15.2948 16.1723 15.2873 16.2817 15.258 16.3866C15.2286 16.4916 15.178 16.59 15.109 16.6762C15.0399 16.7624 14.9538 16.8347 14.8556 16.889C14.7573 16.9434 14.6489 16.9787 14.5364 16.9929C14.4239 17.0071 14.3096 17 14.2 16.9719L8.63945 15.5446C8.41847 15.4878 8.23008 15.3493 8.11568 15.1596C8.00127 14.9699 7.9702 14.7445 8.02929 14.5328Z" fill="white"/>
</svg>
